<?xml version="1.0" standalone="no"?>
<!DOCTYPE svg PUBLIC "-//W3C//DTD SVG 20010904//EN"
 "http://www.w3.org/TR/2001/REC-SVG-20010904/DTD/svg10.dtd">
<svg version="1.0" xmlns="http://www.w3.org/2000/svg"
 width="700.000000pt" height="700.000000pt" viewBox="0 0 700.000000 700.000000"
 preserveAspectRatio="xMidYMid meet">
<metadata>
Created by potrace 1.11, written by Peter Selinger 2001-2013
</metadata>
<g transform="translate(0.000000,700.000000) scale(0.100000,-0.100000)"
fill="#000000" stroke="none">
<path d="M3540 6977 c-41 -10 -77 -22 -80 -25 -3 -4 -17 -13 -31 -20 -94 -49
-169 -172 -216 -352 -28 -105 -28 -106 -27 -440 2 -434 8 -712 18 -728 4 -6 4
-12 -1 -12 -4 0 -7 -15 -6 -32 1 -18 2 -33 3 -33 1 0 3 -61 5 -135 1 -74 6
-281 10 -460 11 -492 11 -519 3 -514 -4 3 -8 12 -8 20 0 8 -7 28 -15 44 -8 16
-16 41 -17 55 -1 14 -5 25 -9 25 -4 0 -10 17 -14 37 -4 21 -12 47 -18 58 -6
11 -11 23 -12 27 0 3 -3 10 -7 14 -5 4 -8 14 -8 23 0 9 -14 52 -31 96 -35 92
-34 90 -44 133 -4 17 -12 32 -18 32 -6 0 -8 3 -4 6 3 3 -1 23 -8 44 -7 21 -11
41 -8 44 4 3 1 6 -5 6 -6 0 -14 15 -18 33 -10 42 -9 38 -22 70 -7 16 -12 32
-12 36 0 5 -8 26 -17 47 -9 22 -18 46 -19 54 -1 8 -16 53 -33 100 -18 47 -52
144 -76 215 -24 72 -50 146 -58 165 -8 19 -15 37 -15 40 -1 3 -3 13 -6 23 -9
25 -13 41 -14 47 -1 4 -33 89 -60 160 -5 14 -9 27 -9 30 0 3 -6 16 -13 30 -8
14 -14 27 -15 30 -1 13 -99 205 -114 222 -9 10 -16 22 -15 26 0 4 -4 12 -10
18 -6 7 -20 25 -31 40 -63 90 -190 187 -264 201 -37 7 -191 7 -221 -1 -14 -3
-35 -8 -46 -10 -75 -15 -158 -88 -201 -175 -26 -53 -27 -63 -27 -206 -1 -156
3 -200 28 -325 18 -95 21 -105 40 -168 8 -29 12 -52 9 -52 -3 0 -1 -6 4 -12 6
-7 10 -20 11 -28 0 -17 29 -127 39 -150 3 -8 8 -28 10 -45 3 -16 8 -36 13 -45
4 -8 13 -42 20 -75 7 -33 17 -66 22 -72 6 -7 8 -13 4 -13 -3 0 -1 -11 4 -26 6
-14 12 -37 15 -52 3 -15 12 -52 20 -82 9 -30 18 -64 20 -75 3 -11 13 -51 24
-90 11 -38 17 -73 15 -77 -3 -4 -1 -8 4 -8 6 0 12 -15 15 -32 2 -18 17 -73 31
-123 14 -49 28 -99 30 -110 2 -11 9 -38 14 -60 6 -22 19 -72 29 -112 10 -39
22 -75 26 -79 4 -4 7 -19 7 -32 0 -14 5 -42 11 -61 11 -33 17 -53 19 -66 1 -2
15 -53 31 -112 17 -60 32 -118 35 -130 2 -12 9 -34 14 -48 5 -14 7 -25 4 -25
-4 0 -1 -7 6 -15 7 -8 10 -15 7 -15 -2 0 4 -30 13 -67 11 -40 15 -74 11 -87
-5 -12 -12 -43 -16 -71 -9 -53 -11 -63 -15 -67 -1 -2 -3 -16 -5 -33 -2 -16 -6
-50 -10 -75 -3 -25 -8 -63 -10 -85 -3 -22 -7 -52 -10 -66 l-6 -26 -90 44 c-50
24 -99 45 -110 46 -10 1 -19 4 -19 8 0 3 -27 14 -60 24 -34 10 -63 22 -66 27
-3 4 -13 8 -22 8 -14 0 -75 76 -91 114 -2 5 -11 16 -20 26 -9 10 -27 31 -39
48 -13 18 -41 50 -63 73 -21 23 -39 45 -39 50 0 5 -4 9 -8 9 -5 0 -22 12 -39
28 -66 58 -79 68 -96 75 -9 3 -17 11 -17 17 0 5 -6 10 -14 10 -7 0 -19 7 -26
15 -6 8 -15 14 -18 13 -10 -3 -76 33 -84 46 -4 6 -8 8 -8 4 0 -3 -24 2 -52 13
-29 10 -61 19 -70 19 -10 0 -18 3 -18 8 0 4 -12 8 -27 8 -16 1 -53 5 -83 9
-104 14 -113 14 -268 -21 -49 -10 -258 -117 -274 -139 -4 -5 -12 -10 -17 -10
-5 0 -21 -10 -34 -22 -14 -12 -38 -30 -54 -40 -15 -10 -33 -22 -39 -28 -6 -5
-28 -23 -49 -40 -90 -71 -86 -58 -34 -107 26 -24 86 -79 134 -123 96 -87 94
-85 250 -230 59 -55 115 -107 125 -115 27 -24 242 -222 277 -257 18 -17 33
-30 33 -29 0 2 25 -21 55 -49 30 -29 55 -58 55 -64 0 -6 4 -11 8 -11 5 0 24
-21 43 -47 44 -63 51 -71 72 -91 9 -9 17 -22 17 -29 0 -7 3 -13 8 -13 4 0 23
-23 42 -50 19 -27 38 -50 43 -50 4 0 7 -4 7 -10 0 -5 8 -18 18 -28 27 -29 52
-62 52 -68 0 -3 6 -11 13 -18 6 -7 21 -25 32 -41 11 -15 29 -38 40 -51 11 -12
29 -35 40 -50 11 -15 26 -33 33 -40 6 -7 12 -17 12 -23 0 -5 6 -14 13 -18 6
-4 32 -35 57 -68 51 -69 51 -69 90 -115 16 -19 30 -38 30 -41 0 -3 10 -17 21
-30 12 -13 40 -49 62 -79 43 -57 54 -69 134 -136 26 -23 60 -52 74 -65 43 -40
138 -120 209 -178 25 -20 49 -42 53 -48 4 -7 14 -13 21 -13 8 0 16 -7 20 -15
3 -8 12 -15 21 -15 8 0 15 -4 15 -9 0 -4 19 -21 42 -37 23 -16 50 -36 59 -44
9 -8 29 -24 44 -35 16 -11 34 -26 41 -32 7 -7 16 -13 21 -13 4 -1 24 -14 43
-30 19 -17 40 -30 46 -30 7 0 15 -7 18 -16 4 -9 9 -14 12 -11 4 3 13 -1 21 -9
12 -12 14 -65 14 -319 l0 -305 37 -16 c20 -9 42 -17 47 -18 6 -1 15 -4 20 -7
6 -4 51 -19 100 -34 50 -15 104 -32 120 -38 17 -6 35 -12 40 -13 61 -11 80
-16 87 -20 8 -5 28 -10 83 -19 17 -3 37 -8 45 -10 50 -14 193 -33 208 -28 6 3
12 1 12 -3 0 -15 374 -23 480 -11 25 3 72 9 105 12 33 3 71 9 85 12 14 3 34 8
45 10 11 2 54 11 95 20 41 9 78 16 83 15 4 -1 7 2 7 6 0 4 9 8 21 9 28 2 103
27 242 81 l117 45 1 56 c0 31 0 138 0 239 -1 177 0 184 22 206 12 13 37 41 56
62 18 21 53 60 77 86 24 26 44 51 44 57 0 6 7 11 15 11 8 0 15 4 15 9 0 5 20
31 45 58 24 26 60 66 79 87 36 41 115 195 184 356 38 89 128 345 136 386 2 10
12 41 21 69 10 27 19 58 20 70 2 11 6 29 8 40 3 11 11 43 17 70 6 28 14 57 16
65 9 34 34 148 40 185 3 22 7 42 9 45 4 7 17 95 19 128 1 12 4 22 8 22 5 0 7
3 6 8 -1 4 2 39 7 77 11 88 7 210 -11 345 -6 47 -12 101 -19 187 -6 67 2 107
25 123 4 3 17 23 29 45 12 22 32 57 44 77 12 21 46 79 76 130 30 51 57 95 60
98 3 3 17 25 30 50 13 25 30 52 37 61 8 8 14 18 14 21 0 4 38 69 85 147 47 77
85 144 85 149 0 5 9 17 20 27 10 9 18 21 17 25 -1 5 4 17 10 27 51 76 63 95
63 103 0 6 5 10 12 10 6 0 9 3 5 6 -3 3 10 29 28 58 18 29 42 68 53 87 11 19
61 103 111 188 50 84 98 167 106 185 8 17 19 38 24 46 9 15 16 32 60 150 50
134 48 272 -6 379 -26 51 -110 151 -127 151 -4 0 -21 9 -37 21 -16 11 -38 21
-49 22 -11 1 -20 4 -20 8 0 9 -107 24 -140 19 -14 -2 -37 -4 -52 -4 -16 -1
-28 -4 -28 -8 0 -5 -3 -7 -7 -6 -21 6 -113 -44 -164 -89 -76 -68 -90 -85 -214
-248 -8 -10 -15 -25 -15 -32 0 -7 -4 -13 -10 -13 -5 0 -10 -4 -10 -9 0 -12
-60 -103 -74 -113 -6 -4 -7 -8 -2 -8 4 0 -2 -15 -16 -32 -13 -18 -30 -45 -37
-60 -8 -16 -18 -28 -23 -28 -5 0 -7 -4 -4 -9 3 -4 -3 -16 -14 -26 -11 -10 -20
-24 -20 -32 0 -7 -4 -13 -10 -13 -5 0 -10 -5 -10 -10 0 -9 -47 -87 -60 -100
-3 -3 -14 -21 -24 -40 -11 -19 -38 -64 -61 -100 -23 -36 -57 -90 -76 -120 -18
-30 -37 -56 -41 -58 -5 -2 -8 -8 -8 -14 0 -6 -13 -30 -30 -55 -16 -24 -30 -46
-30 -49 0 -3 -5 -10 -10 -17 -20 -23 -90 -138 -90 -147 0 -4 -3 -10 -7 -12
-11 -5 -59 -80 -67 -105 -4 -12 -14 -24 -22 -27 -10 -4 -13 -2 -7 7 4 6 19 57
34 112 14 55 38 145 53 200 15 55 29 105 30 110 2 6 6 17 9 25 4 8 8 26 10 40
2 14 7 32 11 41 4 9 8 28 10 43 1 14 6 29 9 33 4 3 7 17 7 30 0 12 5 23 11 23
5 0 7 5 4 10 -4 6 -1 17 5 25 7 8 10 15 7 15 -5 0 -2 13 37 155 58 212 63 235
57 235 -3 0 -1 4 5 8 7 4 14 23 17 43 2 20 7 41 10 46 3 5 8 20 11 34 3 13 17
67 32 119 14 52 27 100 28 105 2 6 8 30 15 55 7 25 15 52 17 60 2 8 10 35 17
60 8 25 15 48 16 53 0 4 1 8 2 10 0 1 2 9 4 17 1 8 13 53 25 100 25 98 29 116
35 150 2 14 7 36 11 50 4 14 9 82 10 151 3 101 0 139 -16 193 -21 74 -67 155
-108 192 -39 34 -121 73 -178 84 -83 15 -232 6 -286 -19 -26 -11 -50 -21 -53
-21 -3 0 -11 -5 -18 -10 -7 -6 -29 -23 -49 -39 -21 -15 -35 -31 -32 -34 3 -3
-3 -8 -13 -12 -18 -6 -83 -88 -83 -104 0 -5 -7 -14 -15 -21 -8 -7 -15 -21 -15
-31 0 -11 -3 -19 -8 -19 -9 0 -31 -51 -61 -140 -12 -36 -26 -74 -31 -85 -5
-11 -18 -58 -30 -105 -12 -47 -26 -92 -31 -101 -4 -9 -10 -27 -13 -41 -4 -25
-33 -126 -44 -158 -3 -8 -6 -17 -7 -20 0 -3 -6 -21 -12 -40 -6 -19 -21 -69
-33 -110 -12 -41 -27 -93 -34 -115 -17 -50 -57 -192 -60 -208 -1 -7 -7 -25
-13 -42 -6 -16 -23 -73 -38 -125 -15 -52 -36 -124 -47 -160 -11 -36 -23 -78
-28 -95 -5 -16 -18 -61 -30 -100 -11 -38 -23 -78 -25 -88 -2 -9 -6 -21 -9 -25
-3 -5 -8 -24 -11 -42 -3 -19 -10 -39 -14 -45 -5 -5 -13 -32 -19 -60 -29 -137
-31 -88 -32 975 -1 591 -3 1089 -5 1105 -9 69 -13 93 -30 155 -24 95 -72 185
-126 239 -48 49 -137 102 -174 106 -11 1 -32 5 -46 9 -54 15 -175 12 -249 -7z
m189 -201 c103 -20 170 -94 203 -226 15 -59 17 -420 3 -420 -7 0 -7 -3 0 -8
14 -10 14 -65 1 -74 -8 -6 -7 -11 2 -17 8 -4 14 -12 14 -16 0 -4 -6 -12 -14
-16 -7 -5 -8 -9 -3 -9 6 0 10 -30 10 -70 0 -38 -4 -70 -8 -70 -4 0 -3 -8 2
-18 7 -13 6 -23 -1 -30 -8 -8 -8 -12 -2 -12 6 0 11 -7 11 -15 0 -8 -5 -15 -11
-15 -6 0 -5 -4 2 -9 8 -4 14 -12 14 -16 0 -4 -6 -12 -14 -16 -7 -5 -8 -9 -2
-9 6 0 11 -7 11 -15 0 -8 -5 -15 -11 -15 -7 0 -7 -3 -1 -8 12 -8 14 -142 2
-142 -4 0 -3 -8 2 -18 7 -13 6 -23 -1 -30 -8 -8 -8 -12 -2 -12 6 0 11 -7 11
-15 0 -8 -5 -15 -11 -15 -7 0 -8 -3 -1 -8 13 -9 14 -102 0 -102 -6 0 -7 -3 0
-8 14 -10 14 -65 1 -74 -8 -6 -7 -11 2 -17 8 -4 14 -12 14 -16 0 -4 -6 -12
-14 -16 -7 -5 -8 -9 -3 -9 6 0 10 -30 10 -70 0 -38 -4 -70 -8 -70 -4 0 -3 -8
2 -18 7 -13 6 -23 -1 -30 -8 -8 -8 -12 -2 -12 6 0 11 -7 11 -15 0 -8 -5 -15
-11 -15 -7 0 -8 -3 -1 -8 13 -9 14 -102 0 -102 -6 0 -7 -3 0 -8 14 -10 14 -65
1 -74 -8 -6 -7 -11 2 -17 8 -4 14 -12 14 -16 0 -4 -6 -12 -14 -16 -7 -5 -8 -9
-3 -9 6 0 10 -30 10 -70 0 -38 -4 -70 -8 -70 -4 0 -3 -8 2 -18 7 -13 6 -23 -1
-30 -8 -8 -8 -12 -2 -12 6 0 11 -7 11 -15 0 -8 -5 -15 -11 -15 -6 0 -5 -4 2
-9 8 -4 14 -12 14 -16 0 -4 -6 -12 -14 -16 -7 -5 -8 -9 -2 -9 6 0 11 -7 11
-15 0 -8 -5 -15 -11 -15 -7 0 -7 -3 -1 -8 12 -8 14 -142 2 -142 -4 0 -3 -8 2
-18 7 -13 6 -23 -1 -30 -8 -8 -8 -12 -2 -12 6 0 11 -7 11 -15 0 -8 -5 -15 -11
-15 -7 0 -8 -3 -1 -8 14 -9 13 -95 0 -104 -6 -5 -6 -8 1 -8 6 0 9 -10 7 -22
-7 -42 10 -52 97 -63 33 -4 89 -14 200 -35 25 -5 48 -6 52 -2 4 4 11 25 17 47
11 42 26 98 63 230 12 44 26 82 30 83 5 2 6 7 4 11 -5 8 1 33 44 181 12 41 23
82 25 90 5 25 56 204 62 220 7 18 10 28 16 55 2 11 6 27 9 35 19 57 39 136 40
157 0 5 3 13 8 18 4 6 11 28 15 50 4 22 11 45 17 52 5 7 7 17 3 23 -3 5 -2 10
3 10 5 0 9 6 9 13 0 18 46 191 52 197 6 5 10 18 17 60 3 14 20 77 38 140 18
63 43 153 55 200 13 47 27 96 33 110 5 14 12 36 14 50 3 14 7 32 11 40 3 8 7
17 8 20 7 19 18 49 28 70 6 14 11 27 11 30 2 13 62 128 80 155 32 46 95 104
135 122 35 17 111 22 163 11 75 -17 126 -80 144 -178 7 -40 10 -130 4 -130 -4
0 -6 -10 -7 -22 0 -13 -6 -45 -12 -73 -6 -27 -14 -61 -17 -74 -3 -13 -9 -32
-15 -43 -5 -10 -8 -18 -5 -18 2 0 -3 -21 -11 -47 -8 -27 -16 -56 -18 -65 -2
-9 -18 -65 -35 -125 -18 -59 -36 -124 -41 -143 -5 -19 -12 -42 -14 -50 -10
-34 -44 -159 -59 -215 -9 -33 -19 -67 -23 -75 -3 -8 -7 -22 -9 -30 -2 -9 -19
-71 -38 -138 -20 -68 -38 -133 -41 -145 -13 -60 -38 -143 -44 -147 -3 -3 -7
-12 -7 -20 -1 -8 -14 -60 -28 -115 -34 -126 -32 -117 -39 -135 -14 -34 -55
-200 -50 -200 3 0 1 -6 -5 -13 -6 -7 -20 -48 -32 -92 -12 -44 -28 -102 -36
-130 -8 -27 -16 -58 -19 -68 -2 -9 -6 -21 -9 -25 -3 -5 -7 -19 -10 -33 -2 -13
-12 -46 -20 -74 -25 -80 -23 -88 37 -115 28 -13 86 -39 127 -59 41 -20 77 -36
80 -36 3 0 16 -7 28 -14 13 -7 25 -11 26 -9 1 2 16 21 34 44 17 23 29 43 27
46 -3 3 4 13 15 23 11 10 20 24 20 32 0 7 4 13 9 13 5 0 11 8 14 18 4 9 33 58
66 107 33 50 75 114 93 144 18 30 42 69 53 87 11 19 26 41 33 51 36 52 102
157 102 163 0 4 8 16 18 28 9 11 37 53 62 93 25 40 55 87 68 106 12 19 22 38
22 43 0 6 5 10 10 10 6 0 10 7 10 15 0 8 5 15 10 15 6 0 10 5 10 10 0 6 16 33
35 60 19 27 35 52 35 55 0 4 108 174 127 201 17 22 33 50 42 71 6 11 15 24 21
28 6 4 16 17 21 28 33 73 171 247 196 247 7 0 13 6 13 13 0 8 24 22 53 32 92
31 179 2 217 -73 15 -31 16 -149 0 -198 -18 -56 -86 -197 -137 -282 -24 -41
-43 -78 -43 -83 0 -6 -4 -7 -10 -4 -5 3 -10 -1 -10 -10 0 -9 -8 -29 -19 -43
-21 -32 -191 -312 -191 -317 0 -2 -18 -31 -40 -64 -22 -33 -40 -63 -40 -66 0
-4 -10 -21 -22 -38 -13 -18 -30 -44 -38 -59 -22 -41 -80 -138 -108 -183 -14
-22 -24 -42 -23 -44 2 -2 -1 -7 -6 -10 -9 -6 -82 -125 -130 -211 -14 -25 -31
-52 -37 -60 -7 -8 -39 -60 -71 -115 -32 -55 -62 -102 -67 -103 -4 -2 -6 -7 -3
-12 3 -4 -2 -13 -10 -20 -8 -7 -15 -19 -15 -26 0 -8 -5 -14 -11 -14 -6 0 -8
-8 -5 -17 6 -21 16 -115 31 -298 3 -38 8 -88 11 -110 5 -50 15 -147 16 -160 0
-5 -3 -26 -7 -45 -4 -19 -8 -44 -10 -55 -2 -11 -6 -31 -9 -45 -2 -14 -7 -38
-10 -55 -3 -16 -7 -41 -10 -55 -3 -14 -9 -45 -12 -70 -3 -25 -10 -52 -15 -61
-4 -9 -6 -19 -3 -22 3 -3 2 -12 -2 -19 -5 -7 -9 -17 -10 -23 -8 -42 -13 -68
-18 -83 -3 -9 -7 -28 -10 -42 -13 -65 -102 -362 -116 -389 -5 -9 -18 -45 -30
-81 -11 -36 -25 -74 -30 -85 -5 -11 -15 -36 -23 -55 -39 -92 -113 -249 -134
-283 -22 -35 -41 -60 -88 -111 -11 -12 -39 -44 -62 -72 -23 -27 -51 -60 -63
-74 -12 -14 -40 -47 -63 -74 -23 -28 -51 -60 -62 -72 -11 -12 -33 -36 -48 -54
l-29 -32 0 -184 c-1 -122 -5 -187 -12 -193 -22 -17 -259 -87 -326 -95 -19 -3
-36 -6 -37 -7 -5 -3 -66 -14 -133 -24 -101 -15 -389 -21 -490 -10 -113 13
-136 15 -155 19 -19 3 -94 19 -105 21 -3 1 -29 5 -57 10 -29 4 -53 11 -53 14
0 4 -8 7 -17 8 -31 3 -66 11 -113 26 -25 8 -63 20 -86 27 l-41 12 0 289 0 289
-24 19 c-13 11 -29 20 -36 21 -6 0 -13 4 -15 8 -1 5 -43 39 -93 77 -49 38
-106 81 -125 97 -19 16 -39 32 -45 36 -10 8 -92 73 -134 107 -13 11 -33 28
-43 38 -10 9 -21 17 -24 17 -3 0 -11 6 -18 12 -12 12 -84 75 -132 115 -131
111 -295 269 -341 329 -12 16 -68 90 -124 164 -57 74 -109 139 -116 143 -7 4
-13 12 -13 18 0 5 -20 35 -45 67 -25 31 -49 62 -53 67 -109 141 -208 267 -229
294 -16 19 -39 50 -53 70 -23 34 -72 85 -189 194 -28 26 -53 47 -55 47 -2 0
-19 15 -38 32 -18 18 -70 67 -116 108 -46 41 -108 98 -138 127 -30 28 -54 49
-54 47 0 -2 -21 16 -47 41 -125 117 -155 145 -159 145 -2 0 -20 16 -38 35
l-34 35 36 28 c47 35 111 76 137 86 137 56 257 70 351 41 24 -7 44 -11 44 -8
0 3 7 0 15 -7 8 -7 15 -10 15 -7 0 16 165 -73 216 -116 103 -87 242 -261 291
-364 9 -20 23 -33 34 -33 10 0 21 -5 24 -10 4 -6 10 -8 14 -5 5 2 23 -2 40
-11 18 -9 37 -17 44 -18 62 -11 301 -120 448 -204 20 -11 47 -26 60 -34 13 -7
26 -15 29 -18 15 -15 71 -50 80 -50 5 0 10 -4 10 -10 0 -5 7 -10 15 -10 8 0
15 -4 15 -8 0 -4 13 -16 30 -25 16 -10 35 -23 42 -30 7 -7 22 -19 34 -27 57
-40 142 -117 271 -247 96 -96 148 -141 158 -137 8 4 15 10 15 15 0 5 6 9 14 9
8 0 22 10 30 22 9 12 16 18 16 13 0 -5 7 1 16 13 8 12 18 21 22 18 4 -2 15 4
25 14 17 16 17 19 2 34 -9 9 -14 16 -10 16 4 0 0 6 -7 14 -7 7 -29 33 -48 57
-19 23 -48 58 -65 75 -16 18 -39 44 -50 58 -11 14 -24 25 -30 26 -5 0 -21 16
-35 35 -14 19 -30 35 -37 35 -7 0 -16 6 -20 13 -4 7 -26 26 -48 42 -22 17 -44
36 -48 42 -4 7 -15 13 -23 13 -8 0 -17 7 -20 15 -4 8 -12 15 -20 15 -8 0 -14
5 -14 10 0 6 -7 10 -15 10 -8 0 -15 4 -15 9 0 5 -8 12 -17 15 -37 13 -73 37
-73 48 0 6 -3 9 -6 5 -3 -3 -24 5 -45 19 -21 13 -43 24 -48 24 -13 0 -22 28
-16 53 6 28 14 81 21 132 3 22 9 56 14 75 5 19 12 51 15 70 3 19 11 53 17 75
5 22 11 45 13 50 8 36 17 72 22 85 9 22 5 40 -43 215 -25 88 -47 171 -50 184
-3 13 -9 32 -15 43 -5 10 -8 18 -5 18 3 0 -2 21 -10 48 -8 26 -17 56 -19 67
-14 64 -16 75 -15 81 1 4 -2 10 -7 13 -8 5 -31 81 -49 161 -3 14 -12 48 -20
75 -9 28 -29 100 -45 160 -38 138 -54 196 -72 263 -9 28 -13 52 -10 52 3 0 1
6 -4 13 -9 10 -22 50 -22 67 0 3 -8 29 -17 59 -9 30 -17 62 -19 70 -2 9 -8 28
-14 44 -6 15 -8 27 -5 27 3 0 2 6 -3 13 -8 13 -10 19 -19 62 -3 17 -8 37 -11
45 -3 8 -7 20 -9 25 -1 6 -12 44 -24 85 -20 72 -69 254 -73 275 -2 6 -5 15 -9
20 -3 6 -9 31 -13 55 -3 25 -12 69 -20 97 -8 33 -12 94 -10 165 3 125 5 138
16 138 4 0 11 10 15 22 16 51 81 86 156 83 60 -2 94 -20 148 -77 49 -52 54
-59 70 -95 8 -18 18 -33 21 -33 5 0 14 -22 19 -50 1 -3 7 -12 14 -20 11 -14
38 -80 64 -155 6 -16 13 -39 17 -50 22 -60 76 -212 79 -225 3 -8 12 -37 22
-65 9 -27 19 -57 22 -65 3 -8 4 -18 4 -22 -1 -5 3 -8 10 -8 6 0 9 -2 6 -6 -3
-3 3 -27 13 -55 10 -27 16 -49 11 -49 -4 0 -2 -4 3 -8 11 -8 74 -180 82 -224
3 -16 10 -28 16 -28 6 0 8 -3 4 -6 -3 -3 3 -28 13 -55 11 -27 17 -49 14 -49
-4 0 -2 -6 3 -12 6 -7 18 -38 28 -68 10 -30 20 -59 24 -65 3 -5 6 -14 7 -20 2
-5 17 -50 34 -100 17 -49 34 -99 37 -110 2 -11 9 -29 14 -40 20 -44 37 -104
32 -109 -4 -3 -2 -6 3 -6 5 0 16 -21 23 -47 8 -27 16 -52 20 -58 3 -5 7 -19 8
-30 2 -10 7 -22 11 -25 4 -3 8 -12 9 -20 1 -13 43 -139 60 -180 4 -8 7 -17 7
-20 6 -27 24 -29 204 -27 l187 2 0 135 c0 74 -2 139 -4 144 -2 4 -5 99 -7 210
-6 411 -14 657 -19 666 -4 6 -1 10 5 10 7 0 7 7 -1 22 -9 17 -9 23 0 26 6 2 8
8 5 14 -7 11 -11 96 -18 380 -2 97 -7 181 -10 187 -4 6 -3 11 1 11 5 0 8 15 6
33 -10 99 -14 559 -4 570 6 8 6 18 1 27 -5 8 -5 21 -1 29 4 9 13 43 20 76 31
145 116 255 203 260 3 0 9 3 12 6 6 6 44 4 95 -5z"/>
</g>
</svg>
